<?xml version="1.0" encoding="utf-8"?>
<!-- Generator: Adobe Illustrator 18.1.1, SVG Export Plug-In . SVG Version: 6.00 Build 0)  -->
<svg version="1.1" id="Layer_1" xmlns="http://www.w3.org/2000/svg" xmlns:xlink="http://www.w3.org/1999/xlink" x="0px" y="0px"
	 viewBox="0 0 70 70" enable-background="new 0 0 70 70" xml:space="preserve">
<g>
	<path fill="#FFAA3A" d="M35,17.9c9.5,0,17.1,7.7,17.1,17.1c0,9.5-7.7,17.1-17.1,17.1c-9.5,0-17.1-7.7-17.1-17.1
		C17.9,25.5,25.5,17.9,35,17.9 M35,14.9c-11.1,0-20.1,9-20.1,20.1c0,11.1,9,20.1,20.1,20.1s20.1-9,20.1-20.1
		C55.1,23.9,46.1,14.9,35,14.9L35,14.9z"/>
</g>
<g>
	<path fill="#FFAA3A" d="M35,10.5c-0.8,0-1.5-0.7-1.5-1.5V1.5C33.5,0.7,34.2,0,35,0s1.5,0.7,1.5,1.5V9C36.5,9.9,35.8,10.5,35,10.5z"
		/>
</g>
<g>
	<path fill="#FFAA3A" d="M16.6,18.1c-0.4,0-0.8-0.1-1.1-0.4l-5.3-5.3c-0.6-0.6-0.6-1.5,0-2.1c0.6-0.6,1.5-0.6,2.1,0l5.3,5.3
		c0.6,0.6,0.6,1.5,0,2.1C17.4,18,17,18.1,16.6,18.1z"/>
</g>
<g>
	<path fill="#FFAA3A" d="M9,36.5H1.5C0.7,36.5,0,35.8,0,35s0.7-1.5,1.5-1.5H9c0.8,0,1.5,0.7,1.5,1.5S9.9,36.5,9,36.5z"/>
</g>
<g>
	<path fill="#FFAA3A" d="M11.3,60.2c-0.4,0-0.8-0.1-1.1-0.4c-0.6-0.6-0.6-1.5,0-2.1l5.3-5.3c0.6-0.6,1.5-0.6,2.1,0s0.6,1.5,0,2.1
		l-5.3,5.3C12.1,60,11.7,60.2,11.3,60.2z"/>
</g>
<g>
	<path fill="#FFAA3A" d="M35,70c-0.8,0-1.5-0.7-1.5-1.5V61c0-0.8,0.7-1.5,1.5-1.5s1.5,0.7,1.5,1.5v7.5C36.5,69.3,35.8,70,35,70z"/>
</g>
<g>
	<path fill="#FFAA3A" d="M58.7,60.2c-0.4,0-0.8-0.1-1.1-0.4l-5.3-5.3c-0.6-0.6-0.6-1.5,0-2.1s1.5-0.6,2.1,0l5.3,5.3
		c0.6,0.6,0.6,1.5,0,2.1C59.5,60,59.1,60.2,58.7,60.2z"/>
</g>
<g>
	<path fill="#FFAA3A" d="M68.5,36.5H61c-0.8,0-1.5-0.7-1.5-1.5s0.7-1.5,1.5-1.5h7.5c0.8,0,1.5,0.7,1.5,1.5S69.3,36.5,68.5,36.5z"/>
</g>
<g>
	<path fill="#FFAA3A" d="M53.4,18.1c-0.4,0-0.8-0.1-1.1-0.4c-0.6-0.6-0.6-1.5,0-2.1l5.3-5.3c0.6-0.6,1.5-0.6,2.1,0s0.6,1.5,0,2.1
		l-5.3,5.3C54.1,18,53.7,18.1,53.4,18.1z"/>
</g>
</svg>
