<?xml version="1.0" encoding="utf-8"?>
<!-- Generator: Adobe Illustrator 18.1.1, SVG Export Plug-In . SVG Version: 6.00 Build 0)  -->
<svg version="1.1" id="Layer_1" xmlns="http://www.w3.org/2000/svg" xmlns:xlink="http://www.w3.org/1999/xlink" x="0px" y="0px"
	 viewBox="0 0 35 29" enable-background="new 0 0 35 29" xml:space="preserve">
<g>
	<g>
		<path d="M32.5,17h-30C1.1,17,0,15.9,0,14.5S1.1,12,2.5,12h30c1.4,0,2.5,1.1,2.5,2.5S33.9,17,32.5,17z"/>
	</g>
</g>
<g>
	<g>
		<path d="M32.5,29h-30C1.1,29,0,27.9,0,26.5S1.1,24,2.5,24h30c1.4,0,2.5,1.1,2.5,2.5S33.9,29,32.5,29z"/>
	</g>
</g>
<g>
	<g>
		<path d="M32.5,5h-30C1.1,5,0,3.9,0,2.5S1.1,0,2.5,0h30C33.9,0,35,1.1,35,2.5S33.9,5,32.5,5z"/>
	</g>
</g>
</svg>
