<?xml version="1.0" encoding="utf-8"?>
<!-- Generator: Adobe Illustrator 18.1.1, SVG Export Plug-In . SVG Version: 6.00 Build 0)  -->
<svg version="1.1" id="Layer_1" xmlns="http://www.w3.org/2000/svg" xmlns:xlink="http://www.w3.org/1999/xlink" x="0px" y="0px"
	 viewBox="-340 -465 750 46.9" enable-background="new -340 -465 750 46.9" xml:space="preserve">
<rect x="-341" y="-465" fill="none" width="750" height="46.9"/>
<text transform="matrix(1 0 0 1 259.3798 -430.5287)" font-family="'HelveticaNeue'" font-size="26.9531">100%</text>
<path opacity="0.5" d="M250.1-433.7l-7.8-7.2l7.3-6.9l-10.2-9v13.2l-6.8-6.3l-1.6,1.7l7.8,7.2l-7.8,7.4l1.6,1.7l6.8-6.4v13.3
	L250.1-433.7z M241.7-429.8v-8.4l4.8,4.4L241.7-429.8z M241.7-451.6l4.4,3.9l-4.4,4.1V-451.6z"/>
<g>
	<path d="M-232.2-441.2l2.4,2.6c2.1-1.9,4.7-2.9,7.5-2.9c2.8,0,5.5,1,7.5,2.9l2.4-2.6c-2.7-2.5-6.2-3.9-9.9-3.9
		C-226-445-229.5-443.7-232.2-441.2z"/>
	<path d="M-227.1-435.5l4.7,5.2l4.7-5.2C-220.3-438-224.4-438-227.1-435.5z"/>
	<path d="M-222.3-452.1c-5.5,0-10.7,2.1-14.7,5.8l2.4,2.6c3.4-3.1,7.7-4.8,12.3-4.8c4.6,0,8.9,1.7,12.3,4.8l2.4-2.6
		C-211.7-450-216.8-452.1-222.3-452.1z"/>
</g>
<g>
	<circle cx="-318.9" cy="-440" r="7"/>
	<path d="M-302.5-447c-3.9,0-7,3.1-7,7c0,3.9,3.1,7,7,7c3.9,0,7-3.1,7-7C-295.5-443.9-298.6-447-302.5-447z"/>
	<path d="M-286.1-447c-3.9,0-7,3.1-7,7c0,3.9,3.1,7,7,7c3.9,0,7-3.1,7-7C-279.1-443.9-282.2-447-286.1-447z"/>
	<path d="M-269.7-447c-3.9,0-7,3.1-7,7c0,3.9,3.1,7,7,7c3.9,0,7-3.1,7-7C-262.7-443.9-265.8-447-269.7-447z"/>
	<path d="M-253.3-447c-3.9,0-7,3.1-7,7c0,3.9,3.1,7,7,7s7-3.1,7-7C-246.3-443.9-249.4-447-253.3-447z M-253.3-434.1
		c-3.2,0-5.9-2.6-5.9-5.9c0-3.2,2.6-5.9,5.9-5.9c3.2,0,5.9,2.6,5.9,5.9C-247.4-436.8-250.1-434.1-253.3-434.1z"/>
</g>
<g>
	<path d="M389.3-450.9c0.7,0,1.2,0.5,1.2,1.2v17.5c0,0.7-0.5,1.2-1.2,1.2h-46.8c-0.7,0-1.2-0.5-1.2-1.2v-17.5c0-0.7,0.5-1.2,1.2-1.2
		H389.3 M389.3-452.1h-46.8c-1.3,0-2.4,1.1-2.4,2.4v17.5c0,1.3,1.1,2.4,2.4,2.4h46.8c1.3,0,2.4-1.1,2.4-2.4v-17.5
		C391.6-451,390.6-452.1,389.3-452.1L389.3-452.1z"/>
	<path d="M389.3-433.3c0,0.6-0.5,1.2-1.2,1.2h-44.5c-0.6,0-1.2-0.5-1.2-1.2v-15.2c0-0.6,0.5-1.2,1.2-1.2h44.5c0.6,0,1.2,0.5,1.2,1.2
		V-433.3z"/>
	<path d="M392.8-445.8v9.4c2.6,0,4.7-2.1,4.7-4.7C397.5-443.7,395.4-445.8,392.8-445.8z"/>
</g>
</svg>
